<svg xmlns="http://www.w3.org/2000/svg" width="223.749" height="221.814"><defs><clipPath id="a"><path d="M0 177.451h178.999V0H0v177.451z"/></clipPath></defs><g clip-path="url(#a)" transform="matrix(1.25 0 0 -1.25 0 221.814)"><path d="M89.5 177.451c49.428 0 89.5-39.724 89.5-88.726S138.929 0 89.5 0C40.07 0 0 39.723 0 88.725c0 49.002 40.07 88.726 89.5 88.726" fill="#383838"/><path d="M50.565 61.88c-.52 0-1.028.136-1.477.395l-19.37 11.183a2.954 2.954 0 0 0-1.478 2.558v46.308a2.956 2.956 0 0 0 1.478 2.558l40.103 23.154a2.952 2.952 0 0 0 2.954 0l19.37-11.183a2.954 2.954 0 0 0 1.082-4.034l-9.298-16.104a2.952 2.952 0 0 0-3.945-1.13 19.407 19.407 0 0 1-9.211 2.277 23.086 23.086 0 0 1-19.71-11.86c-6.182-10.708-3.475-23.814 6.163-29.838a2.954 2.954 0 0 0 .993-3.98l-5.096-8.828a2.956 2.956 0 0 0-2.558-1.477z" fill="#acc5e7"/><path d="M71.298 151.386a5.904 5.904 0 0 1-2.954-.792L28.24 127.441a5.91 5.91 0 0 1-2.953-5.117V76.017A5.91 5.91 0 0 1 28.24 70.9l19.37-11.183a5.905 5.905 0 0 1 8.068 2.158l.002.004 5.097 8.827a5.908 5.908 0 0 1-1.986 7.964c-8.282 5.175-10.553 16.532-5.17 25.855a20.132 20.132 0 0 0 17.153 10.383 16.474 16.474 0 0 0 7.823-1.933 5.906 5.906 0 0 1 7.89 2.263l9.297 16.103a5.906 5.906 0 0 1-2.162 8.07l-19.37 11.183a5.904 5.904 0 0 1-2.954.792m0-5.908l19.37-11.183-9.297-16.103a22.463 22.463 0 0 1-10.597 2.624 26.048 26.048 0 0 1-22.269-13.337c-6.964-12.061-3.732-27.015 7.155-33.819l-5.096-8.827-19.37 11.184v46.307l40.104 23.154" fill="#5686ba"/><path d="M128.435 61.88a2.958 2.958 0 0 0-2.56 1.476l-5.094 8.827a2.952 2.952 0 0 0 .993 3.981c9.638 6.024 12.345 19.13 6.162 29.838a23.087 23.087 0 0 1-19.71 11.86 19.41 19.41 0 0 1-9.211-2.278 2.951 2.951 0 0 0-3.944 1.131l-9.298 16.103a2.953 2.953 0 0 0 1.08 4.035l19.37 11.183c.915.528 2.04.528 2.955 0l40.104-23.154a2.952 2.952 0 0 0 1.476-2.558V76.016a2.952 2.952 0 0 0-1.476-2.558l-19.37-11.183a2.958 2.958 0 0 0-1.477-.396" fill="#acc5e7"/><path d="M107.7 151.386a5.904 5.904 0 0 1-2.954-.792l-19.369-11.183a5.908 5.908 0 0 1-2.163-8.07l9.298-16.103a5.905 5.905 0 0 1 7.89-2.263 16.483 16.483 0 0 0 7.823 1.933 20.128 20.128 0 0 0 17.153-10.383c5.382-9.323 3.111-20.68-5.17-25.855a5.91 5.91 0 0 1-1.987-7.964l5.097-8.827a5.906 5.906 0 0 1 8.07-2.162l19.37 11.183a5.908 5.908 0 0 1 2.954 5.117v46.307a5.908 5.908 0 0 1-2.954 5.117l-40.104 23.153a5.904 5.904 0 0 1-2.954.792m0-5.908l40.104-23.154V76.017l-19.37-11.184-5.095 8.827c10.886 6.804 14.118 21.758 7.155 33.819a26.049 26.049 0 0 1-22.269 13.337 22.472 22.472 0 0 1-10.597-2.624l-9.297 16.103 19.37 11.183" fill="#5686ba"/><path d="M90.024 112.111c-14.103 0-25.535 11.433-25.535 25.535 0 14.103 11.432 25.535 25.535 25.535s25.535-11.432 25.535-25.535c-.015-14.096-11.438-25.519-25.535-25.535" fill="#acc5e7"/><path d="M90.024 166.135c-15.734 0-28.489-12.755-28.489-28.489s12.755-28.489 28.49-28.489c15.733 0 28.488 12.755 28.488 28.489-.017 15.727-12.762 28.471-28.489 28.489m0-5.908c12.472 0 22.581-10.11 22.581-22.581s-10.109-22.581-22.58-22.581c-12.472 0-22.582 10.11-22.582 22.581s10.11 22.581 22.581 22.581" fill="#5686ba"/><path d="M95.218 28.126h-6.266l.839 8.022-7.525-4.673-3.027 4.517 8.423 3.35-8.423 3.348 3.027 4.518 7.525-4.673-.84 8.023h6.267l-.87-8.023 7.556 4.673 2.998-4.518-8.395-3.348 8.395-3.35-2.998-4.517-7.555 4.673.869-8.022z" fill="#69bf62"/><path d="M95.218 28.126h-6.266l.839 8.022-7.525-4.673-3.027 4.517 8.423 3.35-8.423 3.348 3.027 4.518 7.525-4.673-.84 8.023h6.267l-.87-8.023 7.556 4.673 2.998-4.518-8.395-3.348 8.395-3.35-2.998-4.517-7.555 4.673.869-8.022z" fill="none" stroke="#69bf62" stroke-width="1.412" stroke-linejoin="round"/><path d="M128.976 28.126h-6.266l.84 8.022-7.525-4.673-3.028 4.517 8.424 3.35-8.424 3.348 3.028 4.518 7.525-4.673-.84 8.023h6.266l-.87-8.023 7.557 4.673 2.998-4.518-8.395-3.348 8.395-3.35-2.998-4.517-7.556 4.673.869-8.022z" fill="#69bf62"/><path d="M128.976 28.126h-6.266l.84 8.022-7.525-4.673-3.028 4.517 8.424 3.35-8.424 3.348 3.028 4.518 7.525-4.673-.84 8.023h6.266l-.87-8.023 7.557 4.673 2.998-4.518-8.395-3.348 8.395-3.35-2.998-4.517-7.556 4.673.869-8.022z" fill="none" stroke="#69bf62" stroke-width="1.412" stroke-linejoin="round"/><path d="M56.69 23.65h-7.106l20.925 42.268h7.137L56.688 23.65z" fill="#69bf62"/><path d="M56.69 23.65h-7.106l20.925 42.268h7.137L56.688 23.65z" fill="none" stroke="#69bf62" stroke-width="1.412" stroke-linejoin="round"/></g></svg>