<?xml version="1.0" encoding="UTF-8"?>
<svg width="463px" height="291px" viewBox="0 0 463 291" version="1.1" xmlns="http://www.w3.org/2000/svg" xmlns:xlink="http://www.w3.org/1999/xlink">
    <!-- Generator: Sketch 46.2 (44496) - http://www.bohemiancoding.com/sketch -->
    <title>node</title>
    <desc>Created with Sketch.</desc>
    <defs>
        <linearGradient x1="51.74034%" y1="48.94292%" x2="44.12736%" y2="64.47338%" id="linearGradient-1">
            <stop stop-color="#41873F" offset="0%"></stop>
            <stop stop-color="#418B3D" offset="32.88%"></stop>
            <stop stop-color="#419637" offset="63.52%"></stop>
            <stop stop-color="#3FA92D" offset="93.19%"></stop>
            <stop stop-color="#3FAE2A" offset="100%"></stop>
        </linearGradient>
        <linearGradient x1="68.1884411%" y1="17.4868311%" x2="27.8226935%" y2="89.7551419%" id="linearGradient-2">
            <stop stop-color="#41873F" offset="0%"></stop>
            <stop stop-color="#418B3D" offset="32.88%"></stop>
            <stop stop-color="#419637" offset="63.52%"></stop>
            <stop stop-color="#3FA92D" offset="93.19%"></stop>
            <stop stop-color="#3FAE2A" offset="100%"></stop>
        </linearGradient>
        <linearGradient x1="43.2765472%" y1="55.168777%" x2="159.245277%" y2="-18.3061379%" id="linearGradient-3">
            <stop stop-color="#41873F" offset="13.76%"></stop>
            <stop stop-color="#54A044" offset="40.32%"></stop>
            <stop stop-color="#66B848" offset="71.36%"></stop>
            <stop stop-color="#6CC04A" offset="90.81%"></stop>
        </linearGradient>
        <linearGradient x1="-4413.77%" y1="13.43%" x2="5327.93%" y2="13.43%" id="linearGradient-4">
            <stop stop-color="#6CC04A" offset="9.191646%"></stop>
            <stop stop-color="#66B848" offset="28.64%"></stop>
            <stop stop-color="#54A044" offset="59.68%"></stop>
            <stop stop-color="#41873F" offset="86.24%"></stop>
        </linearGradient>
        <linearGradient x1="-4.38880435%" y1="49.9972065%" x2="101.499239%" y2="49.9972065%" id="linearGradient-5">
            <stop stop-color="#6CC04A" offset="9.191646%"></stop>
            <stop stop-color="#66B848" offset="28.64%"></stop>
            <stop stop-color="#54A044" offset="59.68%"></stop>
            <stop stop-color="#41873F" offset="86.24%"></stop>
        </linearGradient>
        <linearGradient x1="-9713.77%" y1="36.21%" x2="27.93%" y2="36.21%" id="linearGradient-6">
            <stop stop-color="#6CC04A" offset="9.191646%"></stop>
            <stop stop-color="#66B848" offset="28.64%"></stop>
            <stop stop-color="#54A044" offset="59.68%"></stop>
            <stop stop-color="#41873F" offset="86.24%"></stop>
        </linearGradient>
        <linearGradient x1="-103.860714%" y1="50.2754209%" x2="100.796849%" y2="50.2754209%" id="linearGradient-7">
            <stop stop-color="#6CC04A" offset="9.191646%"></stop>
            <stop stop-color="#66B848" offset="28.64%"></stop>
            <stop stop-color="#54A044" offset="59.68%"></stop>
            <stop stop-color="#41873F" offset="86.24%"></stop>
        </linearGradient>
        <linearGradient x1="130.613025%" y1="-211.06936%" x2="4.39327731%" y2="201.605387%" id="linearGradient-8">
            <stop stop-color="#41873F" offset="0%"></stop>
            <stop stop-color="#418B3D" offset="32.88%"></stop>
            <stop stop-color="#419637" offset="63.52%"></stop>
            <stop stop-color="#3FA92D" offset="93.19%"></stop>
            <stop stop-color="#3FAE2A" offset="100%"></stop>
        </linearGradient>
    </defs>
    <g id="Page-1" stroke="none" stroke-width="1" fill="none" fill-rule="evenodd">
        <g id="node" transform="translate(10.000000, 10.000000)">
            <g id="Group" transform="translate(170.000000, 162.000000)" fill-rule="nonzero" fill="#699F63">
                <path d="M49,108.9 C47.5,108.9 46.1,108.5 44.8,107.8 L31.5,99.9 C29.5,98.8 30.5,98.4 31.1,98.2 C33.8,97.3 34.3,97.1 37.1,95.5 C37.4,95.3 37.8,95.4 38.1,95.6 L48.3,101.7 C48.7,101.9 49.2,101.9 49.5,101.7 L89.4,78.6 C89.8,78.4 90,78 90,77.5 L90,31.4 C90,30.9 89.8,30.5 89.4,30.3 L49.5,7.3 C49.1,7.1 48.6,7.1 48.3,7.3 L8.4,30.3 C8,30.5 7.8,31 7.8,31.4 L7.8,77.5 C7.8,77.9 8,78.4 8.4,78.6 L19.3,84.9 C25.2,87.9 28.9,84.4 28.9,80.9 L28.9,35.4 C28.9,34.8 29.4,34.2 30.1,34.2 L35.2,34.2 C35.8,34.2 36.4,34.7 36.4,35.4 L36.4,80.9 C36.4,88.8 32.1,93.4 24.6,93.4 C22.3,93.4 20.5,93.4 15.4,90.9 L4.9,84.9 C2.3,83.4 0.7,80.6 0.7,77.6 L0.7,31.5 C0.7,28.5 2.3,25.7 4.9,24.2 L44.8,1.1 C47.3,-0.3 50.7,-0.3 53.2,1.1 L93.1,24.2 C95.7,25.7 97.3,28.5 97.3,31.5 L97.3,77.6 C97.3,80.6 95.7,83.4 93.1,84.9 L53.2,108 C51.9,108.6 50.4,108.9 49,108.9 Z" id="Shape"></path>
                <path d="M61.3,77.2 C43.8,77.2 40.2,69.2 40.2,62.4 C40.2,61.8 40.7,61.2 41.4,61.2 L46.6,61.2 C47.2,61.2 47.7,61.6 47.7,62.2 C48.5,67.5 50.8,70.1 61.4,70.1 C69.8,70.1 73.4,68.2 73.4,63.7 C73.4,61.1 72.4,59.2 59.3,57.9 C48.4,56.8 41.6,54.4 41.6,45.7 C41.6,37.6 48.4,32.8 59.8,32.8 C72.6,32.8 78.9,37.2 79.7,46.8 C79.7,47.1 79.6,47.4 79.4,47.7 C79.2,47.9 78.9,48.1 78.6,48.1 L73.4,48.1 C72.9,48.1 72.4,47.7 72.3,47.2 C71.1,41.7 68,39.9 59.8,39.9 C50.6,39.9 49.5,43.1 49.5,45.5 C49.5,48.4 50.8,49.3 63.2,50.9 C75.5,52.5 81.3,54.8 81.3,63.4 C81.2,72.2 74,77.2 61.3,77.2 Z" id="Shape"></path>
            </g>
            <path d="M288.9,190.8 C288.9,195 285.4,198.5 281.2,198.5 C277,198.5 273.5,195.1 273.5,190.8 C273.5,186.4 277.1,183.1 281.2,183.1 C285.4,183.1 288.9,186.5 288.9,190.8 Z M274.7,190.8 C274.7,194.4 277.6,197.3 281.1,197.3 C284.7,197.3 287.6,194.3 287.6,190.8 C287.6,187.2 284.7,184.4 281.1,184.4 C277.7,184.4 274.7,187.2 274.7,190.8 Z M278.3,186.5 L281.3,186.5 C282.3,186.5 284.3,186.5 284.3,188.8 C284.3,190.4 283.3,190.7 282.7,190.9 C283.9,191 284,191.8 284.1,192.9 C284.2,193.6 284.3,194.8 284.5,195.2 L282.7,195.2 C282.7,194.8 282.4,192.6 282.4,192.5 C282.3,192 282.1,191.8 281.5,191.8 L280,191.8 L280,195.3 L278.3,195.3 L278.3,186.5 Z M279.9,190.3 L281.2,190.3 C282.3,190.3 282.5,189.5 282.5,189.1 C282.5,187.9 281.7,187.9 281.2,187.9 L279.8,187.9 L279.8,190.3 L279.9,190.3 Z" id="Shape" fill="#699F63" fill-rule="nonzero"></path>
            <path d="M95.2,90.6 C95.2,88.8 94.2,87.1 92.6,86.2 L50.2,61.8 C49.5,61.4 48.7,61.2 47.9,61.1 C47.8,61.1 47.5,61.1 47.5,61.1 C46.7,61.1 45.9,61.4 45.2,61.8 L2.8,86.2 C1.2,87.1 0.2,88.8 0.2,90.6 L0.3,156.2 C0.3,157.1 0.8,158 1.6,158.4 C2.4,158.9 3.4,158.9 4.1,158.4 L29.3,144 C30.9,143.1 31.9,141.4 31.9,139.6 L31.9,108.9 C31.9,107.1 32.9,105.4 34.5,104.5 L45.2,98.3 C46,97.8 46.9,97.6 47.8,97.6 C48.7,97.6 49.6,97.8 50.3,98.3 L61,104.5 C62.6,105.4 63.6,107.1 63.6,108.9 L63.6,139.6 C63.6,141.4 64.6,143.1 66.2,144 L91.4,158.4 C92.2,158.9 93.2,158.9 94,158.4 C94.8,158 95.3,157.1 95.3,156.2 L95.2,90.6 Z" id="Shape" fill="#333333"></path>
            <path d="M299,0.3 C298.2,-0.1 297.2,-0.1 296.5,0.3 C295.7,0.8 295.2,1.6 295.2,2.5 L295.2,67.5 C295.2,68.1 294.9,68.7 294.3,69.1 C293.7,69.4 293.1,69.4 292.5,69.1 L281.9,63 C280.3,62.1 278.4,62.1 276.8,63 L234.4,87.5 C232.8,88.4 231.8,90.1 231.8,91.9 L231.8,140.8 C231.8,142.6 232.8,144.3 234.4,145.2 L276.8,169.7 C278.4,170.6 280.3,170.6 281.9,169.7 L324.3,145.2 C325.9,144.3 326.9,142.6 326.9,140.8 L326.9,18.9 C326.9,17 325.9,15.3 324.3,14.4 L299,0.3 Z M295.1,124.7 C295.1,125.2 294.9,125.6 294.5,125.8 L280,134.2 C279.6,134.4 279.1,134.4 278.7,134.2 L264.2,125.8 C263.8,125.6 263.6,125.1 263.6,124.7 L263.6,107.9 C263.6,107.4 263.8,107 264.2,106.8 L278.7,98.4 C279.1,98.2 279.6,98.2 280,98.4 L294.5,106.8 C294.9,107 295.1,107.5 295.1,107.9 L295.1,124.7 Z" id="Shape" fill="#333333"></path>
            <g id="Group" transform="translate(347.000000, 61.000000)">
                <path d="M93.1,46.5 C94.7,45.6 95.6,43.9 95.6,42.1 L95.6,30.2 C95.6,28.4 94.6,26.7 93.1,25.8 L51,1.4 C49.4,0.5 47.5,0.5 45.9,1.4 L3.5,25.9 C1.9,26.8 0.9,28.5 0.9,30.3 L0.9,79.2 C0.9,81 1.9,82.7 3.5,83.6 L45.6,107.6 C47.2,108.5 49.1,108.5 50.6,107.6 L76.1,93.4 C76.9,93 77.4,92.1 77.4,91.2 C77.4,90.3 76.9,89.4 76.1,89 L33.5,64.5 C32.7,64 32.2,63.2 32.2,62.3 L32.2,47 C32.2,46.1 32.7,45.2 33.5,44.8 L46.8,37.2 C47.6,36.7 48.6,36.7 49.4,37.2 L62.7,44.8 C63.5,45.3 64,46.1 64,47 L64,59 C64,59.9 64.5,60.8 65.3,61.2 C66.1,61.7 67.1,61.7 67.9,61.2 L93.1,46.5 Z" id="Shape" fill="#333333"></path>
                <path d="M47.8,44.2 C48.1,44 48.5,44 48.8,44.2 L56.9,48.9 C57.2,49.1 57.4,49.4 57.4,49.8 L57.4,59.2 C57.4,59.6 57.2,59.9 56.9,60.1 L48.8,64.8 C48.5,65 48.1,65 47.8,64.8 L39.7,60.1 C39.4,59.9 39.2,59.6 39.2,59.2 L39.2,49.8 C39.2,49.4 39.4,49.1 39.7,48.9 L47.8,44.2 Z" id="Shape" fill="#699F63"></path>
            </g>
            <g id="Group" transform="translate(116.000000, 53.000000)">
                <g id="XMLID_143_-link" transform="translate(0.000000, 8.000000)" fill="url(#linearGradient-2)">
                    <path d="M50.1,1.6 C48.5,0.7 46.6,0.7 45,1.6 L2.9,25.9 C1.3,26.8 0.4,28.5 0.4,30.3 L0.4,79 C0.4,80.8 1.4,82.5 2.9,83.4 L45,107.7 C46.6,108.6 48.5,108.6 50.1,107.7 L92.2,83.4 C93.8,82.5 94.7,80.8 94.7,79 L94.7,30.3 C94.7,28.5 93.7,26.8 92.2,25.9 L50.1,1.6 Z" id="XMLID_143_"></path>
                </g>
                <g transform="translate(0.000000, 8.000000)" id="Shape">
                    <path d="M44.9,1.6 L2.7,25.9 C1.1,26.8 0,28.5 0,30.3 L0,79 C0,80.2 0.5,81.3 1.3,82.2 L48.7,1 C47.5,0.8 46.1,0.9 44.9,1.6 Z"></path>
                    <path d="M49,108.2 C49.4,108.1 49.8,107.9 50.2,107.7 L92.4,83.4 C94,82.5 95,80.8 95,79 L95,30.3 C95,29 94.4,27.7 93.5,26.8 L49,108.2 Z"></path>
                    <path d="M92.3,25.9 L50,1.6 C49.6,1.4 49.1,1.2 48.7,1.1 L1.3,82.3 C1.7,82.8 2.2,83.2 2.7,83.5 L45,107.8 C46.2,108.5 47.6,108.7 48.9,108.3 L93.4,26.9 C93.1,26.5 92.7,26.2 92.3,25.9 Z" fill="url(#linearGradient-3)" fill-rule="nonzero"></path>
                </g>
                <g id="Shape">
                    <path d="M95,87 L95,38.3 C95,36.5 93.9,34.8 92.3,33.9 L50,9.6 C49.5,9.3 49,9.1 48.4,9 L94.7,88.1 C94.9,87.8 95,87.4 95,87 Z"></path>
                    <path d="M2.7,33.9 C1.1,34.8 0,36.5 0,38.3 L0,87 C0,88.8 1.2,90.5 2.7,91.4 L45,115.7 C46,116.3 47.1,116.5 48.3,116.3 L3,33.8 L2.7,33.9 Z"></path>
                    <polygon fill="url(#linearGradient-4)" fill-rule="nonzero" points="43.6 0.7 43 1 43.8 1"></polygon>
                    <path d="M92.4,91.4 C93.6,90.7 94.5,89.5 94.9,88.2 L48.5,9 C47.3,8.8 46,8.9 44.9,9.6 L2.9,33.8 L48.2,116.4 C48.8,116.3 49.5,116.1 50.1,115.8 L92.4,91.4 Z" fill="url(#linearGradient-5)" fill-rule="nonzero"></path>
                    <polygon fill="url(#linearGradient-6)" fill-rule="nonzero" points="96.3 90.6 96 90.1 96 90.8"></polygon>
                    <path d="M92.4,91.4 L50.2,115.7 C49.6,116 49,116.2 48.3,116.3 L49.1,117.8 L95.9,90.7 L95.9,90.1 L94.7,88.1 C94.5,89.5 93.6,90.7 92.4,91.4 Z" fill="url(#linearGradient-7)" fill-rule="nonzero"></path>
                    <path d="M92.4,91.4 L50.2,115.7 C49.6,116 49,116.2 48.3,116.3 L49.1,117.8 L95.9,90.7 L95.9,90.1 L94.7,88.1 C94.5,89.5 93.6,90.7 92.4,91.4 Z" fill="url(#linearGradient-8)" fill-rule="nonzero"></path>
                </g>
            </g>
        </g>
    </g>
</svg>