<svg width="463px" height="291px" xmlns="http://www.w3.org/2000/svg"><!--Generator: Sketch 46.2 (44496) - http://www.bohemiancoding.com/sketch--><defs><linearGradient x1="68.1884411%" y1="17.4868311%" x2="27.8226935%" y2="89.7551419%" id="a"><stop stop-color="#41873F" offset="0%"/><stop stop-color="#418B3D" offset="32.88%"/><stop stop-color="#419637" offset="63.52%"/><stop stop-color="#3FA92D" offset="93.19%"/><stop stop-color="#3FAE2A" offset="100%"/></linearGradient><linearGradient x1="43.2765472%" y1="55.168777%" x2="159.245277%" y2="-18.3061379%" id="b"><stop stop-color="#41873F" offset="13.76%"/><stop stop-color="#54A044" offset="40.32%"/><stop stop-color="#66B848" offset="71.36%"/><stop stop-color="#6CC04A" offset="90.81%"/></linearGradient><linearGradient x1="-4413.77%" y1="13.43%" x2="5327.93%" y2="13.43%" id="c"><stop stop-color="#6CC04A" offset="9.191646%"/><stop stop-color="#66B848" offset="28.64%"/><stop stop-color="#54A044" offset="59.68%"/><stop stop-color="#41873F" offset="86.24%"/></linearGradient><linearGradient x1="-4.38880435%" y1="49.9972065%" x2="101.499239%" y2="49.9972065%" id="d"><stop stop-color="#6CC04A" offset="9.191646%"/><stop stop-color="#66B848" offset="28.64%"/><stop stop-color="#54A044" offset="59.68%"/><stop stop-color="#41873F" offset="86.24%"/></linearGradient><linearGradient x1="-9713.77%" y1="36.21%" x2="27.93%" y2="36.21%" id="e"><stop stop-color="#6CC04A" offset="9.191646%"/><stop stop-color="#66B848" offset="28.64%"/><stop stop-color="#54A044" offset="59.68%"/><stop stop-color="#41873F" offset="86.24%"/></linearGradient><linearGradient x1="-103.860714%" y1="50.2754209%" x2="100.796849%" y2="50.2754209%" id="f"><stop stop-color="#6CC04A" offset="9.191646%"/><stop stop-color="#66B848" offset="28.64%"/><stop stop-color="#54A044" offset="59.68%"/><stop stop-color="#41873F" offset="86.24%"/></linearGradient><linearGradient x1="130.613025%" y1="-211.06936%" x2="4.39327731%" y2="201.605387%" id="g"><stop stop-color="#41873F" offset="0%"/><stop stop-color="#418B3D" offset="32.88%"/><stop stop-color="#419637" offset="63.52%"/><stop stop-color="#3FA92D" offset="93.19%"/><stop stop-color="#3FAE2A" offset="100%"/></linearGradient></defs><g fill="none" fill-rule="evenodd"><g fill-rule="nonzero" fill="#699F63"><path d="M229 280.9c-1.5 0-2.9-.4-4.2-1.1l-13.3-7.9c-2-1.1-1-1.5-.4-1.7 2.7-.9 3.2-1.1 6-2.7.3-.2.7-.1 1 .1l10.2 6.1c.4.2.9.2 1.2 0l39.9-23.1c.4-.2.6-.6.6-1.1v-46.1c0-.5-.2-.9-.6-1.1l-39.9-23c-.4-.2-.9-.2-1.2 0l-39.9 23c-.4.2-.6.7-.6 1.1v46.1c0 .4.2.9.6 1.1l10.9 6.3c5.9 3 9.6-.5 9.6-4v-45.5c0-.6.5-1.2 1.2-1.2h5.1c.6 0 1.2.5 1.2 1.2v45.5c0 7.9-4.3 12.5-11.8 12.5-2.3 0-4.1 0-9.2-2.5l-10.5-6a8.44 8.44 0 0 1-4.2-7.3v-46.1c0-3 1.6-5.8 4.2-7.3l39.9-23.1c2.5-1.4 5.9-1.4 8.4 0l39.9 23.1c2.6 1.5 4.2 4.3 4.2 7.3v46.1c0 3-1.6 5.8-4.2 7.3L233.2 280c-1.3.6-2.8.9-4.2.9z"/><path d="M241.3 249.2c-17.5 0-21.1-8-21.1-14.8 0-.6.5-1.2 1.2-1.2h5.2c.6 0 1.1.4 1.1 1 .8 5.3 3.1 7.9 13.7 7.9 8.4 0 12-1.9 12-6.4 0-2.6-1-4.5-14.1-5.8-10.9-1.1-17.7-3.5-17.7-12.2 0-8.1 6.8-12.9 18.2-12.9 12.8 0 19.1 4.4 19.9 14 0 .3-.1.6-.3.9-.2.2-.5.4-.8.4h-5.2c-.5 0-1-.4-1.1-.9-1.2-5.5-4.3-7.3-12.5-7.3-9.2 0-10.3 3.2-10.3 5.6 0 2.9 1.3 3.8 13.7 5.4 12.3 1.6 18.1 3.9 18.1 12.5-.1 8.8-7.3 13.8-20 13.8z"/></g><path d="M298.9 200.8c0 4.2-3.5 7.7-7.7 7.7s-7.7-3.4-7.7-7.7c0-4.4 3.6-7.7 7.7-7.7 4.2 0 7.7 3.4 7.7 7.7zm-14.2 0c0 3.6 2.9 6.5 6.4 6.5 3.6 0 6.5-3 6.5-6.5 0-3.6-2.9-6.4-6.5-6.4-3.4 0-6.4 2.8-6.4 6.4zm3.6-4.3h3c1 0 3 0 3 2.3 0 1.6-1 1.9-1.6 2.1 1.2.1 1.3.9 1.4 2 .1.7.2 1.9.4 2.3h-1.8c0-.4-.3-2.6-.3-2.7-.1-.5-.3-.7-.9-.7H290v3.5h-1.7v-8.8zm1.6 3.8h1.3c1.1 0 1.3-.8 1.3-1.2 0-1.2-.8-1.2-1.3-1.2h-1.4v2.4h.1z" fill="#699F63" fill-rule="nonzero"/><path d="M105.2 100.6c0-1.8-1-3.5-2.6-4.4L60.2 71.8c-.7-.4-1.5-.6-2.3-.7h-.4c-.8 0-1.6.3-2.3.7L12.8 96.2c-1.6.9-2.6 2.6-2.6 4.4l.1 65.6c0 .9.5 1.8 1.3 2.2.8.5 1.8.5 2.5 0L39.3 154c1.6-.9 2.6-2.6 2.6-4.4v-30.7c0-1.8 1-3.5 2.6-4.4l10.7-6.2c.8-.5 1.7-.7 2.6-.7.9 0 1.8.2 2.5.7l10.7 6.2c1.6.9 2.6 2.6 2.6 4.4v30.7c0 1.8 1 3.5 2.6 4.4l25.2 14.4c.8.5 1.8.5 2.6 0 .8-.4 1.3-1.3 1.3-2.2l-.1-65.6zM309 10.3c-.8-.4-1.8-.4-2.5 0-.8.5-1.3 1.3-1.3 2.2v65c0 .6-.3 1.2-.9 1.6-.6.3-1.2.3-1.8 0L291.9 73c-1.6-.9-3.5-.9-5.1 0l-42.4 24.5c-1.6.9-2.6 2.6-2.6 4.4v48.9c0 1.8 1 3.5 2.6 4.4l42.4 24.5c1.6.9 3.5.9 5.1 0l42.4-24.5c1.6-.9 2.6-2.6 2.6-4.4V28.9c0-1.9-1-3.6-2.6-4.5L309 10.3zm-3.9 124.4c0 .5-.2.9-.6 1.1l-14.5 8.4c-.4.2-.9.2-1.3 0l-14.5-8.4c-.4-.2-.6-.7-.6-1.1v-16.8c0-.5.2-.9.6-1.1l14.5-8.4c.4-.2.9-.2 1.3 0l14.5 8.4c.4.2.6.7.6 1.1v16.8zM450.1 117.5c1.6-.9 2.5-2.6 2.5-4.4v-11.9c0-1.8-1-3.5-2.5-4.4L408 72.4c-1.6-.9-3.5-.9-5.1 0l-42.4 24.5c-1.6.9-2.6 2.6-2.6 4.4v48.9c0 1.8 1 3.5 2.6 4.4l42.1 24c1.6.9 3.5.9 5 0l25.5-14.2c.8-.4 1.3-1.3 1.3-2.2 0-.9-.5-1.8-1.3-2.2l-42.6-24.5c-.8-.5-1.3-1.3-1.3-2.2V118c0-.9.5-1.8 1.3-2.2l13.3-7.6c.8-.5 1.8-.5 2.6 0l13.3 7.6c.8.5 1.3 1.3 1.3 2.2v12c0 .9.5 1.8 1.3 2.2.8.5 1.8.5 2.6 0l25.2-14.7z" fill="#333"/><path d="M404.8 115.2c.3-.2.7-.2 1 0l8.1 4.7c.3.2.5.5.5.9v9.4c0 .4-.2.7-.5.9l-8.1 4.7c-.3.2-.7.2-1 0l-8.1-4.7c-.3-.2-.5-.5-.5-.9v-9.4c0-.4.2-.7.5-.9l8.1-4.7z" fill="#699F63"/><g><path d="M50.1 1.6c-1.6-.9-3.5-.9-5.1 0L2.9 25.9c-1.6.9-2.5 2.6-2.5 4.4V79c0 1.8 1 3.5 2.5 4.4L45 107.7c1.6.9 3.5.9 5.1 0l42.1-24.3c1.6-.9 2.5-2.6 2.5-4.4V30.3c0-1.8-1-3.5-2.5-4.4L50.1 1.6z" transform="translate(126 71)" fill="url(#a)"/><path d="M170.9 72.6l-42.2 24.3c-1.6.9-2.7 2.6-2.7 4.4V150c0 1.2.5 2.3 1.3 3.2L174.7 72c-1.2-.2-2.6-.1-3.8.6zM175 179.2c.4-.1.8-.3 1.2-.5l42.2-24.3c1.6-.9 2.6-2.6 2.6-4.4v-48.7c0-1.3-.6-2.6-1.5-3.5L175 179.2z"/><path d="M92.3 25.9L50 1.6c-.4-.2-.9-.4-1.3-.5L1.3 82.3c.4.5.9.9 1.4 1.2L45 107.8c1.2.7 2.6.9 3.9.5l44.5-81.4c-.3-.4-.7-.7-1.1-1z" fill="url(#b)" fill-rule="nonzero" transform="translate(126 71)"/><g><path d="M221 150v-48.7c0-1.8-1.1-3.5-2.7-4.4L176 72.6c-.5-.3-1-.5-1.6-.6l46.3 79.1c.2-.3.3-.7.3-1.1zM128.7 96.9c-1.6.9-2.7 2.6-2.7 4.4V150c0 1.8 1.2 3.5 2.7 4.4l42.3 24.3c1 .6 2.1.8 3.3.6L129 96.8l-.3.1z"/><path fill="url(#c)" fill-rule="nonzero" d="M43.6.7L43 1h.8z" transform="translate(126 63)"/><path d="M92.4 91.4c1.2-.7 2.1-1.9 2.5-3.2L48.5 9c-1.2-.2-2.5-.1-3.6.6l-42 24.2 45.3 82.6c.6-.1 1.3-.3 1.9-.6l42.3-24.4z" fill="url(#d)" fill-rule="nonzero" transform="translate(126 63)"/><path fill="url(#e)" fill-rule="nonzero" d="M96.3 90.6l-.3-.5v.7z" transform="translate(126 63)"/><path d="M92.4 91.4l-42.2 24.3c-.6.3-1.2.5-1.9.6l.8 1.5 46.8-27.1v-.6l-1.2-2c-.2 1.4-1.1 2.6-2.3 3.3z" fill="url(#f)" fill-rule="nonzero" transform="translate(126 63)"/><path d="M92.4 91.4l-42.2 24.3c-.6.3-1.2.5-1.9.6l.8 1.5 46.8-27.1v-.6l-1.2-2c-.2 1.4-1.1 2.6-2.3 3.3z" fill="url(#g)" fill-rule="nonzero" transform="translate(126 63)"/></g></g></g></svg>