<svg width="579px" height="605px" xmlns="http://www.w3.org/2000/svg" xmlns:xlink="http://www.w3.org/1999/xlink"><!--Generator: Sketch 45.2 (43514) - http://www.bohemiancoding.com/sketch--><defs><linearGradient x1="99.0433673%" y1="59.6098898%" x2="0%" y2="39.3009806%" id="a"><stop stop-color="#A25F3B" offset="0%"/><stop stop-color="#B0704D" offset="100%"/></linearGradient><linearGradient x1="0%" y1="38.8004223%" y2="58.9678672%" id="b"><stop stop-color="#955532" offset="0%"/><stop stop-color="#B76133" offset="100%"/></linearGradient><radialGradient cy="0%" fx="50%" fy="0%" r="100%" gradientTransform="matrix(0 1 -.33 0 .5 -.5)" id="c"><stop stop-color="#B3B3B3" offset="0%"/><stop stop-color="#AFAFAF" offset="95.4161352%"/></radialGradient><linearGradient x1="0%" y1="38.8004223%" y2="58.9678672%" id="d"><stop stop-color="#E1B780" offset="0%"/><stop stop-color="#D59860" offset="100%"/></linearGradient><linearGradient x1="100%" y1="59.806048%" x2="0%" y2="39.3009806%" id="e"><stop stop-color="#ECC999" offset="0%"/><stop stop-color="#EDB179" offset="100%"/></linearGradient><linearGradient x1="10.7507165%" y1="87.7179269%" x2="102.288687%" y2="13.1618306%" id="f"><stop stop-color="#BB6A3F" offset="0%"/><stop stop-color="#B56033" offset="94.2165799%"/><stop stop-color="#B76133" offset="100%"/></linearGradient><linearGradient x1="0%" y1="38.8004223%" y2="58.9678672%" id="g"><stop stop-color="#9E603E" offset="0%"/><stop stop-color="#C3754C" offset="100%"/></linearGradient><radialGradient cy="0%" fx="50%" fy="0%" r="100%" gradientTransform="matrix(0 1 -.89656 0 .5 -.5)" id="h"><stop stop-color="#343434" offset="0%"/><stop stop-color="#5F5F5F" offset="100%"/></radialGradient><radialGradient cy="0%" fx="50%" fy="0%" r="100%" gradientTransform="matrix(0 .99527 -1 0 .5 -.498)" id="i"><stop stop-color="#343434" offset="0%"/><stop stop-color="#5F5F5F" offset="100%"/></radialGradient><linearGradient x1="50%" y1="0%" x2="50%" y2="100%" id="j"><stop stop-color="#957566" offset="0%"/><stop stop-color="#69493C" offset="96.6876594%"/></linearGradient><path d="M162.59 64.598c4.828-20.56 14.149-19.13 18.641 0 2.995 12.754 2.995 39.215 0 79.383 12.725 30.088 20.643 46.637 23.754 49.649 8.754 8.473.836 17.955-23.754 28.445l13.131 40.814h-50.045l13.1-40.814c-16.987-2.576-25.086-10.3-24.297-23.174.789-12.873 8.888-31.18 24.296-54.92.23-39.215 1.955-65.676 5.174-79.383z" id="k"/><radialGradient cx="53.8461538%" cy="46.1538462%" fx="53.8461538%" fy="46.1538462%" r="26.577524%" gradientTransform="matrix(0 1 -1.17614 0 1.081 -.077)" id="l"><stop stop-color="#FFF" offset="0%"/><stop offset="100%"/></radialGradient></defs><g fill="none" fill-rule="evenodd"><path fill="url(#a)" d="M280.938 250.379L55 361.62V71L280.938.922z" transform="translate(0 123)"/><path fill="url(#b)" transform="matrix(1 0 0 -1 0 454.172)" d="M279.988 67.41l245.87-66.262v257.024l-245.87 71.851z"/><path d="M387.862 163.227c14.1-1.488 23.737-3.022 30.89-8.99 7.152-5.966 16.122-11.731 23.25-17.58 7.13-5.85-3.526-14.75 0-21.278 3.527-6.528-13.057-8.604-12.139-18.297.919-9.692-283.056-8.238-293.004 5.32-10.088 13.752-13.702 22.558-11.433 31 2.269 8.444.26-8.295 4.24 0 3.979 8.296 10.056 12.388 17.14 17.267 7.085 4.879 9.71 6.45 14.217 10.231 4.507 3.782 20.68 6.73 33.662 6.24 6.39-.24 45.753 29.92 89.961 29.204 45.584-.739 96.058-32.361 103.216-33.117z" fill="url(#c)" transform="translate(0 123)"/><path fill="url(#d)" transform="matrix(1 0 0 -1 0 677.417)" d="M289 73l236.859 117.796v290.62L289 381.68z"/><path fill="url(#e)" d="M290.859 481.417L54 363.62V73l236.859 99.737z" transform="translate(0 123)"/><path fill="url(#f)" d="M290.516 173.008L524.422 72.445 578.105 132 364.95 237.352z" transform="translate(0 123)"/><path fill="url(#g)" d="M55.004 71.48L291 173l-75.355 68.094L.555 132z" transform="translate(0 123)"/><g><g fill="#D8D8D8"><path d="M289.258 271.178c6.251 0 20.029-.993 28.042-1.784 8.013-.79 25.271-16.502 34.88-24.702 9.608-8.2 21.581-6.977 35.682-8.465 14.1-1.488 23.737-3.022 30.89-8.99 7.152-5.966 16.122-11.731 23.25-17.58 7.13-5.85 10.566-9.67 14.092-16.198 3.526-6.527 5.893-17.027 6.812-26.72.918-9.692.971-24.955-5.268-39.013S438.3 106.73 434.93 104.565c-3.369-2.166-12.129-13.36-16.178-18.75-4.05-5.392-17.626-48.752-52.785-58.213-35.159-9.461-21.048-6.438-33.286-7.694-12.237-1.257-11.615-2.526-18.871-2.338-7.257.187-18.283 2.338-24.552 2.338-6.27 0-27.424-2.791-37.192-2.338-9.769.452-21.905 5.33-36.254 10.032-14.349 4.701-32.146 38.97-49.747 58.212-17.602 19.242-14.275 22.877-25.406 29.645C129.527 122.23 117 141.027 117 155.264c0 14.237 1.183 18.756 3.452 27.2 2.27 8.442 5.234 15.643 9.214 23.939 3.979 8.295 10.056 12.387 17.14 17.266 7.085 4.879 9.71 6.45 14.217 10.231 4.507 3.782 20.68 6.73 33.662 6.24 12.981-.489 29.284-1.812 37.884 4.552 8.6 6.364 8.428 10.031 13.936 16.058 5.51 6.028 8.424 8.103 12.905 8.644 4.48.542 7.52.821 11.336 1.104 3.816.282 12.26.68 18.512.68z"/><path d="M421.489 4.435c11.267 10.145 5.143 39.605-18.373 88.38l-67.603-60.87c46.05-28.485 74.709-37.655 85.976-27.51zM151.3 15.376c11.09-10.34 39.904-1.671 86.444 26.006l-66.53 62.041C146.85 55.066 140.211 25.717 151.3 15.376z"/></g><path d="M289.08 263.452c5.681 0 18.202-.89 25.484-1.599 7.282-.708 22.966-14.788 31.698-22.137 8.732-7.348 19.613-6.252 32.428-7.586 12.814-1.333 21.572-2.708 28.072-8.055 6.5-5.348 14.651-10.514 21.13-15.756 6.479-5.242 9.601-8.665 12.806-14.515 3.205-5.85 5.356-15.259 6.19-23.945.835-8.686.884-22.363-4.786-34.962-5.67-12.598-17.575-18.815-20.637-20.756-3.062-1.94-11.023-11.971-14.703-16.803-3.68-4.832-16.018-43.688-47.97-52.167-31.952-8.478-19.129-5.769-30.25-6.895-11.12-1.126-10.555-2.263-17.15-2.095-6.594.168-16.615 2.095-22.312 2.095-5.698 0-24.923-2.5-33.8-2.095-8.878.406-19.906 4.777-32.947 8.99-13.04 4.213-29.213 34.923-45.21 52.167-15.996 17.244-12.972 20.5-23.088 26.567-10.116 6.066-21.5 22.912-21.5 35.67 0 12.759 1.074 16.809 3.136 24.375 2.063 7.566 4.757 14.02 8.373 21.453 3.617 7.434 9.14 11.101 15.578 15.474 6.438 4.372 8.823 5.78 12.92 9.168 4.095 3.39 18.794 6.031 30.591 5.593 11.797-.44 26.613-1.625 34.43 4.078 7.815 5.703 7.658 8.99 12.664 14.39 5.006 5.402 7.656 7.262 11.727 7.747 4.071.485 6.834.736 10.302.989s11.142.61 16.824.61z" fill="#FAFAFA"/><path d="M442.983 191.41c3.282-6.222 5.486-16.23 6.34-25.468.855-9.239.905-23.787-4.902-37.187-5.808-13.4-18.001-20.013-21.137-22.077-3.136-2.064-11.29-12.733-15.059-17.872-3.769-5.14-16.406-46.47-49.131-55.487-32.726-9.018-19.592-6.136-30.983-7.334-11.39-1.198-10.811-2.407-17.565-2.229-6.755.18-17.018 2.229-22.853 2.229-5.836 0-25.526-2.66-34.618-2.229-9.093.432-20.389 5.082-33.745 9.563-13.356 4.481-29.921 37.145-46.305 55.487-16.383 18.34-13.287 21.805-23.648 28.257-10.36 6.452-22.02 24.37-22.02 37.94 0 13.571 1.1 17.879 3.212 25.926.344 1.308 7.225-32.824 34.19-52.174 6.66-4.779 17.085-18.545 32.064-26.235 18.356-9.423 35.764-14.077 41.52-13.714 12.417.782 31.542 0 49.35 0s41.157-.802 56.34 5.454c20.048 8.26 30.624 11.663 42.884 22.803 10.63 9.66 23.605 10.263 31.194 20.57 17.638 23.96 23.975 55.477 24.872 53.778z" fill="#A1958E"/><path d="M276.725 28.34c11.127 0 24.174 20.936 39.141 62.808-18.211 1.477-31.105 2.215-38.68 2.215-7.574 0-18.855-2.598-33.844-7.795 11.128-38.152 22.255-57.227 33.383-57.227z" fill="url(#h)" transform="rotate(42 371.97 200.25)"/><path d="M59.275 39.943c10.445 0 21.397 15.41 32.856 46.228-13.937 4.878-24.636 7.317-32.097 7.317-7.461 0-16.138 1.62-26.029 4.856 6.401-38.934 14.824-58.4 25.27-58.4z" fill="url(#i)" transform="rotate(-43 88.566 -92.367)"/><g transform="translate(117 -26)"><use fill="url(#j)" xlink:href="#k"/><path stroke="#979797" d="M145.003 262.389h48.673l-13.06-40.595.419-.179c24.305-10.368 31.96-19.536 23.603-27.626-3.187-3.084-11.093-19.61-23.867-49.813l-.048-.112.01-.12c2.99-40.117 2.99-66.545.011-79.232-4.489-19.116-13.075-19.556-17.667 0-3.208 13.66-4.93 40.094-5.16 79.272l-.002.146-.08.123c-15.365 23.674-23.434 41.913-24.216 54.679-.771 12.583 7.119 20.108 23.872 22.649l.58.088-13.068 40.72z"/></g><path d="M286.674 252.477c13.063 0 24.283-3.806 24.283-14.931 0-6.318-1.483-11.81-6.233-17.194-4.11-4.659-10.616-7.839-16.26-7.839-5.645 0-14.566 3.65-18.735 7.839-4.17 4.19-6.846 11.08-6.846 17.194 0 11.125 10.727 14.93 23.79 14.93z" stroke="#979797" fill="#3F3F3F"/><path d="M166.016 185.815c5.403-17.464 13.096-27.246 19.851-34.36 11.643-12.262 23.718-11.548 31.9-15.618 19.392-9.649 27.046-4.456 45.25 1.715 9.74 3.301 10.379 9.855 10.637 17.23.257 7.373 3.536 16.192-4.53 25.036-7.412 8.126-5.325 3.08-26.425 8.902-21.1 5.822-8.024 23.236-24.933 36.374-10.122 7.865-23.154 3.46-31.899 0-11.07-4.38-16.898-7.17-18.915-12.502-5.415-14.314-4.99-13.672-.936-26.777zM418.631 176.247c-6.524-17.318-15.242-17.485-22.841-24.71-13.098-12.45-26.173-12.198-35.204-16.492-21.407-10.178-29.516-5.372-49.033 0-10.443 2.874-10.888 9.274-10.888 16.493 0 7.218-3.222 15.74 5.865 24.709 8.35 8.239 5.894 3.216 29.008 9.706 23.115 6.49 6.907 24.604 25.752 38.11 11.281 8.085 25.143 3.066 34.5 0 11.844-3.883 20.855-12.633 22.841-17.784 5.334-13.829 4.896-17.036 0-30.032z" fill="#363636"/><g transform="translate(236.095 146.946)"><circle fill="#E1D5D5" cx="14.0474296" cy="14.9495395" r="13.9139335"/><circle fill="url(#l)" cx="15.5340906" cy="13.4628785" r="13.4628785"/></g><g transform="translate(306.516 146.946)"><circle fill="#E1D5D5" cx="14.0474296" cy="14.9495395" r="13.9139335"/><circle fill="url(#l)" cx="15.5340906" cy="13.4628785" r="13.4628785"/></g></g></g></svg>